<svg xmlns="http://www.w3.org/2000/svg" xmlns:xlink="http://www.w3.org/1999/xlink" contentStyleType="text/css" data-diagram-type="CLASS" height="509px" preserveAspectRatio="none" style="width:1848px;height:509px;background:#FFFFFF;" version="1.1" viewBox="0 0 1848 509" width="1848px" zoomAndPan="magnify"><defs/><g><!--cluster UI--><g class="cluster" data-entity="UI" data-source-line="5" data-uid="ent0002" id="cluster_UI"><rect fill="none" height="244.48" style="stroke:#000000;stroke-width:1.5;" width="767" x="105" y="7"/><text fill="#000000" font-family="sans-serif" font-size="14" font-weight="bold" lengthAdjust="spacing" textLength="16.5771" x="480.2114" y="21.9951">UI</text></g><!--cluster Distribuciones--><g class="cluster" data-entity="Distribuciones" data-source-line="19" data-uid="ent0009" id="cluster_Distribuciones"><rect fill="none" height="125.89" style="stroke:#000000;stroke-width:1.5;" width="439" x="7" y="275.48"/><text fill="#000000" font-family="sans-serif" font-size="14" font-weight="bold" lengthAdjust="spacing" textLength="113.6475" x="169.6763" y="290.4751">Distribuciones</text></g><!--cluster Generadores--><g class="cluster" data-entity="Generadores" data-source-line="31" data-uid="ent0012" id="cluster_Generadores"><rect fill="none" height="228.19" style="stroke:#000000;stroke-width:1.5;" width="516" x="491" y="275.48"/><text fill="#000000" font-family="sans-serif" font-size="14" font-weight="bold" lengthAdjust="spacing" textLength="101.1719" x="698.4141" y="290.4751">Generadores</text></g><!--cluster Pruebas--><g class="cluster" data-entity="Pruebas" data-source-line="43" data-uid="ent0018" id="cluster_Pruebas"><rect fill="none" height="228.19" style="stroke:#000000;stroke-width:1.5;" width="811" x="1031" y="275.48"/><text fill="#000000" font-family="sans-serif" font-size="14" font-weight="bold" lengthAdjust="spacing" textLength="64.4287" x="1404.2856" y="290.4751">Pruebas</text></g><!--class MainUI--><g class="entity" data-entity="MainUI" data-source-line="6" data-uid="ent0003" id="entity_MainUI"><rect fill="#F1F1F1" height="91.1875" rx="2.5" ry="2.5" style="stroke:#181818;stroke-width:0.5;" width="174.1826" x="466.91" y="42"/><text fill="#000000" font-family="sans-serif" font-size="14" lengthAdjust="spacing" textLength="47.7969" x="530.1029" y="59.9951">MainUI</text><line style="stroke:#181818;stroke-width:0.5;" x1="467.91" x2="640.0926" y1="68.2969" y2="68.2969"/><line style="stroke:#181818;stroke-width:0.5;" x1="467.91" x2="640.0926" y1="76.2969" y2="76.2969"/><ellipse cx="477.91" cy="89.9453" fill="#84BE84" rx="3" ry="3" style="stroke:#038048;stroke-width:1;"/><text fill="#000000" font-family="sans-serif" font-size="14" lengthAdjust="spacing" textLength="148.1826" x="486.91" y="93.292">_show_distributions()</text><ellipse cx="477.91" cy="106.2422" fill="#84BE84" rx="3" ry="3" style="stroke:#038048;stroke-width:1;"/><text fill="#000000" font-family="sans-serif" font-size="14" lengthAdjust="spacing" textLength="137.5322" x="486.91" y="109.5889">_show_generators()</text><ellipse cx="477.91" cy="122.5391" fill="#84BE84" rx="3" ry="3" style="stroke:#038048;stroke-width:1;"/><text fill="#000000" font-family="sans-serif" font-size="14" lengthAdjust="spacing" textLength="95.2861" x="486.91" y="125.8857">_show_tests()</text></g><!--class UniformDistributionUI--><g class="entity" data-entity="UniformDistributionUI" data-source-line="12" data-uid="ent0004" id="entity_UniformDistributionUI"><rect fill="#F1F1F1" height="42.2969" rx="2.5" ry="2.5" style="stroke:#181818;stroke-width:0.5;" width="157.9492" x="121.03" y="193.19"/><text fill="#000000" font-family="sans-serif" font-size="14" lengthAdjust="spacing" textLength="151.9492" x="124.03" y="211.1851">UniformDistributionUI</text><line style="stroke:#181818;stroke-width:0.5;" x1="122.03" x2="277.9792" y1="219.4869" y2="219.4869"/><line style="stroke:#181818;stroke-width:0.5;" x1="122.03" x2="277.9792" y1="227.4869" y2="227.4869"/></g><!--class NormalDistributionUI--><g class="entity" data-entity="NormalDistributionUI" data-source-line="13" data-uid="ent0005" id="entity_NormalDistributionUI"><rect fill="#F1F1F1" height="42.2969" rx="2.5" ry="2.5" style="stroke:#181818;stroke-width:0.5;" width="152.9521" x="313.52" y="193.19"/><text fill="#000000" font-family="sans-serif" font-size="14" lengthAdjust="spacing" textLength="146.9521" x="316.52" y="211.1851">NormalDistributionUI</text><line style="stroke:#181818;stroke-width:0.5;" x1="314.52" x2="465.4721" y1="219.4869" y2="219.4869"/><line style="stroke:#181818;stroke-width:0.5;" x1="314.52" x2="465.4721" y1="227.4869" y2="227.4869"/></g><!--class CongruenceUI--><g class="entity" data-entity="CongruenceUI" data-source-line="14" data-uid="ent0006" id="entity_CongruenceUI"><rect fill="#F1F1F1" height="42.2969" rx="2.5" ry="2.5" style="stroke:#181818;stroke-width:0.5;" width="104.9023" x="501.55" y="193.19"/><text fill="#000000" font-family="sans-serif" font-size="14" lengthAdjust="spacing" textLength="98.9023" x="504.55" y="211.1851">CongruenceUI</text><line style="stroke:#181818;stroke-width:0.5;" x1="502.55" x2="605.4523" y1="219.4869" y2="219.4869"/><line style="stroke:#181818;stroke-width:0.5;" x1="502.55" x2="605.4523" y1="227.4869" y2="227.4869"/></g><!--class HalfSquaresUI--><g class="entity" data-entity="HalfSquaresUI" data-source-line="15" data-uid="ent0007" id="entity_HalfSquaresUI"><rect fill="#F1F1F1" height="42.2969" rx="2.5" ry="2.5" style="stroke:#181818;stroke-width:0.5;" width="105.1895" x="641.41" y="193.19"/><text fill="#000000" font-family="sans-serif" font-size="14" lengthAdjust="spacing" textLength="99.1895" x="644.41" y="211.1851">HalfSquaresUI</text><line style="stroke:#181818;stroke-width:0.5;" x1="642.41" x2="745.5995" y1="219.4869" y2="219.4869"/><line style="stroke:#181818;stroke-width:0.5;" x1="642.41" x2="745.5995" y1="227.4869" y2="227.4869"/></g><!--class FileTestUI--><g class="entity" data-entity="FileTestUI" data-source-line="16" data-uid="ent0008" id="entity_FileTestUI"><rect fill="#F1F1F1" height="42.2969" rx="2.5" ry="2.5" style="stroke:#181818;stroke-width:0.5;" width="74.7695" x="781.62" y="193.19"/><text fill="#000000" font-family="sans-serif" font-size="14" lengthAdjust="spacing" textLength="68.7695" x="784.62" y="211.1851">FileTestUI</text><line style="stroke:#181818;stroke-width:0.5;" x1="782.62" x2="855.3895" y1="219.4869" y2="219.4869"/><line style="stroke:#181818;stroke-width:0.5;" x1="782.62" x2="855.3895" y1="227.4869" y2="227.4869"/></g><!--class UniformDistribution--><g class="entity" data-entity="UniformDistribution" data-source-line="20" data-uid="ent0010" id="entity_UniformDistribution"><rect fill="#F1F1F1" height="74.8906" rx="2.5" ry="2.5" style="stroke:#181818;stroke-width:0.5;" width="186.2617" x="22.87" y="310.48"/><text fill="#000000" font-family="sans-serif" font-size="14" lengthAdjust="spacing" textLength="137.5732" x="47.2142" y="328.4751">UniformDistribution</text><line style="stroke:#181818;stroke-width:0.5;" x1="23.87" x2="208.1317" y1="336.7769" y2="336.7769"/><rect fill="none" height="6" style="stroke:#C82930;stroke-width:1;" width="6" x="30.87" y="347.4253"/><text fill="#000000" font-family="sans-serif" font-size="14" lengthAdjust="spacing" textLength="160.2617" x="42.87" y="353.772">lcg : LinealCongruence</text><line style="stroke:#181818;stroke-width:0.5;" x1="23.87" x2="208.1317" y1="361.0737" y2="361.0737"/><ellipse cx="33.87" cy="374.7222" fill="#84BE84" rx="3" ry="3" style="stroke:#038048;stroke-width:1;"/><text fill="#000000" font-family="sans-serif" font-size="14" lengthAdjust="spacing" textLength="135.8711" x="42.87" y="378.0689">generate_uniform()</text></g><!--class NormalDistribution--><g class="entity" data-entity="NormalDistribution" data-source-line="25" data-uid="ent0011" id="entity_NormalDistribution"><rect fill="#F1F1F1" height="74.8906" rx="2.5" ry="2.5" style="stroke:#181818;stroke-width:0.5;" width="186.2617" x="243.87" y="310.48"/><text fill="#000000" font-family="sans-serif" font-size="14" lengthAdjust="spacing" textLength="132.5762" x="270.7128" y="328.4751">NormalDistribution</text><line style="stroke:#181818;stroke-width:0.5;" x1="244.87" x2="429.1317" y1="336.7769" y2="336.7769"/><rect fill="none" height="6" style="stroke:#C82930;stroke-width:1;" width="6" x="251.87" y="347.4253"/><text fill="#000000" font-family="sans-serif" font-size="14" lengthAdjust="spacing" textLength="160.2617" x="263.87" y="353.772">lcg : LinealCongruence</text><line style="stroke:#181818;stroke-width:0.5;" x1="244.87" x2="429.1317" y1="361.0737" y2="361.0737"/><ellipse cx="254.87" cy="374.7222" fill="#84BE84" rx="3" ry="3" style="stroke:#038048;stroke-width:1;"/><text fill="#000000" font-family="sans-serif" font-size="14" lengthAdjust="spacing" textLength="130.6484" x="263.87" y="378.0689">generate_normal()</text></g><!--class Congruences--><g class="entity" data-entity="Congruences" data-source-line="32" data-uid="ent0013" id="entity_Congruences"><rect fill="#F1F1F1" height="74.8906" rx="2.5" ry="2.5" style="stroke:#181818;stroke-width:0.5;" width="188.1074" x="677.95" y="310.48"/><text fill="#000000" font-family="sans-serif" font-size="14" font-style="italic" lengthAdjust="spacing" textLength="91.8203" x="726.0936" y="328.4751">Congruences</text><line style="stroke:#181818;stroke-width:0.5;" x1="678.95" x2="865.0574" y1="336.7769" y2="336.7769"/><line style="stroke:#181818;stroke-width:0.5;" x1="678.95" x2="865.0574" y1="344.7769" y2="344.7769"/><ellipse cx="688.95" cy="358.4253" fill="#84BE84" rx="3" ry="3" style="stroke:#038048;stroke-width:1;"/><text fill="#000000" font-family="sans-serif" font-size="14" lengthAdjust="spacing" textLength="148.8115" x="697.95" y="361.772">generate_sequence()</text><ellipse cx="688.95" cy="374.7222" fill="#84BE84" rx="3" ry="3" style="stroke:#038048;stroke-width:1;"/><text fill="#000000" font-family="sans-serif" font-size="14" lengthAdjust="spacing" textLength="162.1074" x="697.95" y="378.0689">hull_dobell_validation()</text></g><!--class LinealCongruence--><g class="entity" data-entity="LinealCongruence" data-source-line="37" data-uid="ent0014" id="entity_LinealCongruence"><rect fill="#F1F1F1" height="42.2969" rx="2.5" ry="2.5" style="stroke:#181818;stroke-width:0.5;" width="132.1709" x="506.91" y="445.37"/><text fill="#000000" font-family="sans-serif" font-size="14" lengthAdjust="spacing" textLength="126.1709" x="509.91" y="463.3651">LinealCongruence</text><line style="stroke:#181818;stroke-width:0.5;" x1="507.91" x2="638.0809" y1="471.6669" y2="471.6669"/><line style="stroke:#181818;stroke-width:0.5;" x1="507.91" x2="638.0809" y1="479.6669" y2="479.6669"/></g><!--class AditiveCongruence--><g class="entity" data-entity="AditiveCongruence" data-source-line="38" data-uid="ent0015" id="entity_AditiveCongruence"><rect fill="#F1F1F1" height="42.2969" rx="2.5" ry="2.5" style="stroke:#181818;stroke-width:0.5;" width="139.1572" x="674.42" y="445.37"/><text fill="#000000" font-family="sans-serif" font-size="14" lengthAdjust="spacing" textLength="133.1572" x="677.42" y="463.3651">AditiveCongruence</text><line style="stroke:#181818;stroke-width:0.5;" x1="675.42" x2="812.5772" y1="471.6669" y2="471.6669"/><line style="stroke:#181818;stroke-width:0.5;" x1="675.42" x2="812.5772" y1="479.6669" y2="479.6669"/></g><!--class MultipyCongruence--><g class="entity" data-entity="MultipyCongruence" data-source-line="39" data-uid="ent0016" id="entity_MultipyCongruence"><rect fill="#F1F1F1" height="42.2969" rx="2.5" ry="2.5" style="stroke:#181818;stroke-width:0.5;" width="141.9189" x="849.04" y="445.37"/><text fill="#000000" font-family="sans-serif" font-size="14" lengthAdjust="spacing" textLength="135.9189" x="852.04" y="463.3651">MultipyCongruence</text><line style="stroke:#181818;stroke-width:0.5;" x1="850.04" x2="989.9589" y1="471.6669" y2="471.6669"/><line style="stroke:#181818;stroke-width:0.5;" x1="850.04" x2="989.9589" y1="479.6669" y2="479.6669"/></g><!--class HalfSquares--><g class="entity" data-entity="HalfSquares" data-source-line="40" data-uid="ent0017" id="entity_HalfSquares"><rect fill="#F1F1F1" height="42.2969" rx="2.5" ry="2.5" style="stroke:#181818;stroke-width:0.5;" width="90.8135" x="900.59" y="326.78"/><text fill="#000000" font-family="sans-serif" font-size="14" lengthAdjust="spacing" textLength="84.8135" x="903.59" y="344.7751">HalfSquares</text><line style="stroke:#181818;stroke-width:0.5;" x1="901.59" x2="990.4035" y1="353.0769" y2="353.0769"/><line style="stroke:#181818;stroke-width:0.5;" x1="901.59" x2="990.4035" y1="361.0769" y2="361.0769"/></g><!--class RandomTest--><g class="entity" data-entity="RandomTest" data-source-line="44" data-uid="ent0019" id="entity_RandomTest"><rect fill="#F1F1F1" height="58.5938" rx="2.5" ry="2.5" style="stroke:#181818;stroke-width:0.5;" width="94.2178" x="1347.89" y="318.63"/><text fill="#000000" font-family="sans-serif" font-size="14" font-style="italic" lengthAdjust="spacing" textLength="88.2178" x="1350.89" y="336.6251">RandomTest</text><line style="stroke:#181818;stroke-width:0.5;" x1="1348.89" x2="1441.1078" y1="344.9269" y2="344.9269"/><line style="stroke:#181818;stroke-width:0.5;" x1="1348.89" x2="1441.1078" y1="352.9269" y2="352.9269"/><ellipse cx="1358.89" cy="366.5753" fill="#84BE84" rx="3" ry="3" style="stroke:#038048;stroke-width:1;"/><text fill="#000000" font-family="sans-serif" font-size="14" lengthAdjust="spacing" textLength="34.4258" x="1367.89" y="369.922">run()</text></g><!--class MeanTest--><g class="entity" data-entity="MeanTest" data-source-line="48" data-uid="ent0020" id="entity_MeanTest"><rect fill="#F1F1F1" height="42.2969" rx="2.5" ry="2.5" style="stroke:#181818;stroke-width:0.5;" width="74.0928" x="1618.95" y="445.37"/><text fill="#000000" font-family="sans-serif" font-size="14" lengthAdjust="spacing" textLength="68.0928" x="1621.95" y="463.3651">MeanTest</text><line style="stroke:#181818;stroke-width:0.5;" x1="1619.95" x2="1692.0428" y1="471.6669" y2="471.6669"/><line style="stroke:#181818;stroke-width:0.5;" x1="1619.95" x2="1692.0428" y1="479.6669" y2="479.6669"/></g><!--class VarianceTest--><g class="entity" data-entity="VarianceTest" data-source-line="49" data-uid="ent0021" id="entity_VarianceTest"><rect fill="#F1F1F1" height="42.2969" rx="2.5" ry="2.5" style="stroke:#181818;stroke-width:0.5;" width="97.5127" x="1728.24" y="445.37"/><text fill="#000000" font-family="sans-serif" font-size="14" lengthAdjust="spacing" textLength="91.5127" x="1731.24" y="463.3651">VarianceTest</text><line style="stroke:#181818;stroke-width:0.5;" x1="1729.24" x2="1824.7527" y1="471.6669" y2="471.6669"/><line style="stroke:#181818;stroke-width:0.5;" x1="1729.24" x2="1824.7527" y1="479.6669" y2="479.6669"/></g><!--class ChiSquareTest--><g class="entity" data-entity="ChiSquareTest" data-source-line="50" data-uid="ent0022" id="entity_ChiSquareTest"><rect fill="#F1F1F1" height="42.2969" rx="2.5" ry="2.5" style="stroke:#181818;stroke-width:0.5;" width="108.0811" x="1046.96" y="445.37"/><text fill="#000000" font-family="sans-serif" font-size="14" lengthAdjust="spacing" textLength="102.0811" x="1049.96" y="463.3651">ChiSquareTest</text><line style="stroke:#181818;stroke-width:0.5;" x1="1047.96" x2="1154.0411" y1="471.6669" y2="471.6669"/><line style="stroke:#181818;stroke-width:0.5;" x1="1047.96" x2="1154.0411" y1="479.6669" y2="479.6669"/></g><!--class KolmogorovSmirnovTest--><g class="entity" data-entity="KolmogorovSmirnovTest" data-source-line="51" data-uid="ent0023" id="entity_KolmogorovSmirnovTest"><rect fill="#F1F1F1" height="42.2969" rx="2.5" ry="2.5" style="stroke:#181818;stroke-width:0.5;" width="177.7393" x="1190.13" y="445.37"/><text fill="#000000" font-family="sans-serif" font-size="14" lengthAdjust="spacing" textLength="171.7393" x="1193.13" y="463.3651">KolmogorovSmirnovTest</text><line style="stroke:#181818;stroke-width:0.5;" x1="1191.13" x2="1366.8693" y1="471.6669" y2="471.6669"/><line style="stroke:#181818;stroke-width:0.5;" x1="1191.13" x2="1366.8693" y1="479.6669" y2="479.6669"/></g><!--class PokerTest--><g class="entity" data-entity="PokerTest" data-source-line="52" data-uid="ent0024" id="entity_PokerTest"><rect fill="#F1F1F1" height="42.2969" rx="2.5" ry="2.5" style="stroke:#181818;stroke-width:0.5;" width="75.4326" x="1403.28" y="445.37"/><text fill="#000000" font-family="sans-serif" font-size="14" lengthAdjust="spacing" textLength="69.4326" x="1406.28" y="463.3651">PokerTest</text><line style="stroke:#181818;stroke-width:0.5;" x1="1404.28" x2="1477.7126" y1="471.6669" y2="471.6669"/><line style="stroke:#181818;stroke-width:0.5;" x1="1404.28" x2="1477.7126" y1="479.6669" y2="479.6669"/></g><!--class RunsTest--><g class="entity" data-entity="RunsTest" data-source-line="53" data-uid="ent0025" id="entity_RunsTest"><rect fill="#F1F1F1" height="42.2969" rx="2.5" ry="2.5" style="stroke:#181818;stroke-width:0.5;" width="70.7158" x="1513.64" y="445.37"/><text fill="#000000" font-family="sans-serif" font-size="14" lengthAdjust="spacing" textLength="64.7158" x="1516.64" y="463.3651">RunsTest</text><line style="stroke:#181818;stroke-width:0.5;" x1="1514.64" x2="1583.3558" y1="471.6669" y2="471.6669"/><line style="stroke:#181818;stroke-width:0.5;" x1="1514.64" x2="1583.3558" y1="479.6669" y2="479.6669"/></g><!--class RandomTestFacade--><g class="entity" data-entity="RandomTestFacade" data-source-line="55" data-uid="ent0026" id="entity_RandomTestFacade"><rect fill="#F1F1F1" height="74.8906" rx="2.5" ry="2.5" style="stroke:#181818;stroke-width:0.5;" width="144.626" x="1476.69" y="310.48"/><text fill="#000000" font-family="sans-serif" font-size="14" lengthAdjust="spacing" textLength="138.626" x="1479.69" y="328.4751">RandomTestFacade</text><line style="stroke:#181818;stroke-width:0.5;" x1="1477.69" x2="1620.316" y1="336.7769" y2="336.7769"/><line style="stroke:#181818;stroke-width:0.5;" x1="1477.69" x2="1620.316" y1="344.7769" y2="344.7769"/><ellipse cx="1487.69" cy="358.4253" fill="#84BE84" rx="3" ry="3" style="stroke:#038048;stroke-width:1;"/><text fill="#000000" font-family="sans-serif" font-size="14" lengthAdjust="spacing" textLength="57.7842" x="1496.69" y="361.772">run_all()</text><ellipse cx="1487.69" cy="374.7222" fill="#84BE84" rx="3" ry="3" style="stroke:#038048;stroke-width:1;"/><text fill="#000000" font-family="sans-serif" font-size="14" lengthAdjust="spacing" textLength="87.876" x="1496.69" y="378.0689">run_subset()</text></g><!--link MainUI to UniformDistributionUI--><g class="link" data-entity-1="MainUI" data-entity-2="UniformDistributionUI" data-source-line="62" data-uid="lnk27" id="link_MainUI_UniformDistributionUI"><path codeLine="62" d="M466.49,87.67 C361.66,87.67 200,87.67 200,87.67 C200,87.67 200,150.71 200,186.85" fill="none" id="MainUI-to-UniformDistributionUI" style="stroke:#181818;stroke-width:1;"/><polygon fill="#181818" points="200,192.85,204,183.85,200,187.85,196,183.85,200,192.85" style="stroke:#181818;stroke-width:1;"/></g><!--link MainUI to NormalDistributionUI--><g class="link" data-entity-1="MainUI" data-entity-2="NormalDistributionUI" data-source-line="63" data-uid="lnk28" id="link_MainUI_NormalDistributionUI"><path codeLine="63" d="M484.23,133.47 C484.23,169.87 484.23,214.67 484.23,214.67 C484.23,214.67 483.18,214.67 472.95,214.67" fill="none" id="MainUI-to-NormalDistributionUI" style="stroke:#181818;stroke-width:1;"/><polygon fill="#181818" points="466.95,214.67,475.95,218.67,471.95,214.67,475.95,210.67,466.95,214.67" style="stroke:#181818;stroke-width:1;"/></g><!--link MainUI to CongruenceUI--><g class="link" data-entity-1="MainUI" data-entity-2="CongruenceUI" data-source-line="64" data-uid="lnk29" id="link_MainUI_CongruenceUI"><path codeLine="64" d="M554,133.35 C554,153.63 554,170.52 554,186.78" fill="none" id="MainUI-to-CongruenceUI" style="stroke:#181818;stroke-width:1;"/><polygon fill="#181818" points="554,192.78,558,183.78,554,187.78,550,183.78,554,192.78" style="stroke:#181818;stroke-width:1;"/></g><!--link MainUI to HalfSquaresUI--><g class="link" data-entity-1="MainUI" data-entity-2="HalfSquaresUI" data-source-line="65" data-uid="lnk30" id="link_MainUI_HalfSquaresUI"><path codeLine="65" d="M628.21,133.47 C628.21,169.87 628.21,214.67 628.21,214.67 C628.21,214.67 627.56,214.67 635.21,214.67" fill="none" id="MainUI-to-HalfSquaresUI" style="stroke:#181818;stroke-width:1;"/><polygon fill="#181818" points="641.21,214.67,632.21,210.67,636.21,214.67,632.21,218.67,641.21,214.67" style="stroke:#181818;stroke-width:1;"/></g><!--link MainUI to FileTestUI--><g class="link" data-entity-1="MainUI" data-entity-2="FileTestUI" data-source-line="66" data-uid="lnk31" id="link_MainUI_FileTestUI"><path codeLine="66" d="M641.51,87.67 C718.69,87.67 819,87.67 819,87.67 C819,87.67 819,150.71 819,186.85" fill="none" id="MainUI-to-FileTestUI" style="stroke:#181818;stroke-width:1;"/><polygon fill="#181818" points="819,192.85,823,183.85,819,187.85,815,183.85,819,192.85" style="stroke:#181818;stroke-width:1;"/></g><!--link UniformDistributionUI to UniformDistribution--><g class="link" data-entity-1="UniformDistributionUI" data-entity-2="UniformDistribution" data-source-line="68" data-uid="lnk32" id="link_UniformDistributionUI_UniformDistribution"><path codeLine="68" d="M165.08,235.8 C165.08,255.79 165.08,280.03 165.08,304.07" fill="none" id="UniformDistributionUI-to-UniformDistribution" style="stroke:#181818;stroke-width:1;"/><polygon fill="#181818" points="165.08,310.07,169.08,301.07,165.08,305.07,161.08,301.07,165.08,310.07" style="stroke:#181818;stroke-width:1;"/></g><!--link NormalDistributionUI to NormalDistribution--><g class="link" data-entity-1="NormalDistributionUI" data-entity-2="NormalDistribution" data-source-line="69" data-uid="lnk33" id="link_NormalDistributionUI_NormalDistribution"><path codeLine="69" d="M371.83,235.8 C371.83,255.79 371.83,280.03 371.83,304.07" fill="none" id="NormalDistributionUI-to-NormalDistribution" style="stroke:#181818;stroke-width:1;"/><polygon fill="#181818" points="371.83,310.07,375.83,301.07,371.83,305.07,367.83,301.07,371.83,310.07" style="stroke:#181818;stroke-width:1;"/></g><!--link UniformDistribution to LinealCongruence--><g class="link" data-entity-1="UniformDistribution" data-entity-2="LinealCongruence" data-source-line="71" data-uid="lnk34" id="link_UniformDistribution_LinealCongruence"><path codeLine="71" d="M116,385.83 C116,420.58 116,466.67 116,466.67 C116,466.67 373.8,466.67 500.55,466.67" fill="none" id="UniformDistribution-to-LinealCongruence" style="stroke:#181818;stroke-width:1;"/><polygon fill="#181818" points="506.55,466.67,497.55,462.67,501.55,466.67,497.55,470.67,506.55,466.67" style="stroke:#181818;stroke-width:1;"/></g><!--link NormalDistribution to LinealCongruence--><g class="link" data-entity-1="NormalDistribution" data-entity-2="LinealCongruence" data-source-line="72" data-uid="lnk35" id="link_NormalDistribution_LinealCongruence"><path codeLine="72" d="M430.52,335.67 C478.44,335.67 526.82,335.67 526.82,335.67 C526.82,335.67 526.82,401.75 526.82,438.91" fill="none" id="NormalDistribution-to-LinealCongruence" style="stroke:#181818;stroke-width:1;"/><polygon fill="#181818" points="526.82,444.91,530.82,435.91,526.82,439.91,522.82,435.91,526.82,444.91" style="stroke:#181818;stroke-width:1;"/></g><!--link CongruenceUI to LinealCongruence--><g class="link" data-entity-1="CongruenceUI" data-entity-2="LinealCongruence" data-source-line="74" data-uid="lnk36" id="link_CongruenceUI_LinealCongruence"><path codeLine="74" d="M546.73,235.84 C546.73,283.48 546.73,391.48 546.73,439.07" fill="none" id="CongruenceUI-to-LinealCongruence" style="stroke:#181818;stroke-width:1;"/><polygon fill="#181818" points="546.73,445.07,550.73,436.07,546.73,440.07,542.73,436.07,546.73,445.07" style="stroke:#181818;stroke-width:1;"/></g><!--link CongruenceUI to AditiveCongruence--><g class="link" data-entity-1="CongruenceUI" data-entity-2="AditiveCongruence" data-source-line="75" data-uid="lnk37" id="link_CongruenceUI_AditiveCongruence"><path codeLine="75" d="M566.64,235.88 C566.64,287.82 566.64,415.67 566.64,415.67 C566.64,415.67 723.16,415.67 723.16,415.67 C723.16,415.67 723.16,425.1 723.16,438.96" fill="none" id="CongruenceUI-to-AditiveCongruence" style="stroke:#181818;stroke-width:1;"/><polygon fill="#181818" points="723.16,444.96,727.16,435.96,723.16,439.96,719.16,435.96,723.16,444.96" style="stroke:#181818;stroke-width:1;"/></g><!--link CongruenceUI to MultipyCongruence--><g class="link" data-entity-1="CongruenceUI" data-entity-2="MultipyCongruence" data-source-line="76" data-uid="lnk38" id="link_CongruenceUI_MultipyCongruence"><path codeLine="76" d="M586.54,235.85 C586.54,283.88 586.54,395.67 586.54,395.67 C586.54,395.67 854.71,395.67 854.71,395.67 C854.71,395.67 854.71,418.04 854.71,438.88" fill="none" id="CongruenceUI-to-MultipyCongruence" style="stroke:#181818;stroke-width:1;"/><polygon fill="#181818" points="854.71,444.88,858.71,435.88,854.71,439.88,850.71,435.88,854.71,444.88" style="stroke:#181818;stroke-width:1;"/></g><!--link HalfSquaresUI to HalfSquares--><g class="link" data-entity-1="HalfSquaresUI" data-entity-2="HalfSquares" data-source-line="78" data-uid="lnk39" id="link_HalfSquaresUI_HalfSquares"><path codeLine="78" d="M712.27,235.76 C712.27,252.75 712.27,273.67 712.27,273.67 C712.27,273.67 946,273.67 946,273.67 C946,273.67 946,298.52 946,320.45" fill="none" id="HalfSquaresUI-to-HalfSquares" style="stroke:#181818;stroke-width:1;"/><polygon fill="#181818" points="946,326.45,950,317.45,946,321.45,942,317.45,946,326.45" style="stroke:#181818;stroke-width:1;"/></g><!--link FileTestUI to RandomTestFacade--><g class="link" data-entity-1="FileTestUI" data-entity-2="RandomTestFacade" data-source-line="80" data-uid="lnk40" id="link_FileTestUI_RandomTestFacade"><path codeLine="80" d="M856.71,214.67 C1006.19,214.67 1549,214.67 1549,214.67 C1549,214.67 1549,264.7 1549,304.1" fill="none" id="FileTestUI-to-RandomTestFacade" style="stroke:#181818;stroke-width:1;"/><polygon fill="#181818" points="1549,310.1,1553,301.1,1549,305.1,1545,301.1,1549,310.1" style="stroke:#181818;stroke-width:1;"/></g><!--link RandomTestFacade to MeanTest--><g class="link" data-entity-1="RandomTestFacade" data-entity-2="MeanTest" data-source-line="81" data-uid="lnk41" id="link_RandomTestFacade_MeanTest"><path codeLine="81" d="M1601.66,385.83 C1601.66,420.58 1601.66,466.67 1601.66,466.67 C1601.66,466.67 1603.14,466.67 1612.55,466.67" fill="none" id="RandomTestFacade-to-MeanTest" style="stroke:#181818;stroke-width:1;"/><polygon fill="#181818" points="1618.55,466.67,1609.55,462.67,1613.55,466.67,1609.55,470.67,1618.55,466.67" style="stroke:#181818;stroke-width:1;"/></g><!--link RandomTestFacade to VarianceTest--><g class="link" data-entity-1="RandomTestFacade" data-entity-2="VarianceTest" data-source-line="82" data-uid="lnk42" id="link_RandomTestFacade_VarianceTest"><path codeLine="82" d="M1621.62,348.67 C1693.62,348.67 1793.25,348.67 1793.25,348.67 C1793.25,348.67 1793.25,404.88 1793.25,438.91" fill="none" id="RandomTestFacade-to-VarianceTest" style="stroke:#181818;stroke-width:1;"/><polygon fill="#181818" points="1793.25,444.91,1797.25,435.91,1793.25,439.91,1789.25,435.91,1793.25,444.91" style="stroke:#181818;stroke-width:1;"/></g><!--link RandomTestFacade to ChiSquareTest--><g class="link" data-entity-1="RandomTestFacade" data-entity-2="ChiSquareTest" data-source-line="83" data-uid="lnk43" id="link_RandomTestFacade_ChiSquareTest"><path codeLine="83" d="M1476.54,379.67 C1354,379.67 1119.01,379.67 1119.01,379.67 C1119.01,379.67 1119.01,413.33 1119.01,439.05" fill="none" id="RandomTestFacade-to-ChiSquareTest" style="stroke:#181818;stroke-width:1;"/><polygon fill="#181818" points="1119.01,445.05,1123.01,436.05,1119.01,440.05,1115.01,436.05,1119.01,445.05" style="stroke:#181818;stroke-width:1;"/></g><!--link RandomTestFacade to KolmogorovSmirnovTest--><g class="link" data-entity-1="RandomTestFacade" data-entity-2="KolmogorovSmirnovTest" data-source-line="84" data-uid="lnk44" id="link_RandomTestFacade_KolmogorovSmirnovTest"><path codeLine="84" d="M1476.4,381.67 C1423.55,381.67 1361.21,381.67 1361.21,381.67 C1361.21,381.67 1361.21,413.97 1361.21,439.11" fill="none" id="RandomTestFacade-to-KolmogorovSmirnovTest" style="stroke:#181818;stroke-width:1;"/><polygon fill="#181818" points="1361.21,445.11,1365.21,436.11,1361.21,440.11,1357.21,436.11,1361.21,445.11" style="stroke:#181818;stroke-width:1;"/></g><!--link RandomTestFacade to PokerTest--><g class="link" data-entity-1="RandomTestFacade" data-entity-2="PokerTest" data-source-line="85" data-uid="lnk45" id="link_RandomTestFacade_PokerTest"><path codeLine="85" d="M1476.25,383.67 C1466.29,383.67 1459.4,383.67 1459.4,383.67 C1459.4,383.67 1459.4,414.64 1459.4,439.19" fill="none" id="RandomTestFacade-to-PokerTest" style="stroke:#181818;stroke-width:1;"/><polygon fill="#181818" points="1459.4,445.19,1463.4,436.19,1459.4,440.19,1455.4,436.19,1459.4,445.19" style="stroke:#181818;stroke-width:1;"/></g><!--link RandomTestFacade to RunsTest--><g class="link" data-entity-1="RandomTestFacade" data-entity-2="RunsTest" data-source-line="86" data-uid="lnk46" id="link_RandomTestFacade_RunsTest"><path codeLine="86" d="M1560.79,385.78 C1560.79,405.3 1560.79,422.41 1560.79,438.89" fill="none" id="RandomTestFacade-to-RunsTest" style="stroke:#181818;stroke-width:1;"/><polygon fill="#181818" points="1560.79,444.89,1564.79,435.89,1560.79,439.89,1556.79,435.89,1560.79,444.89" style="stroke:#181818;stroke-width:1;"/></g><!--reverse link Congruences to LinealCongruence--><g class="link" data-entity-1="Congruences" data-entity-2="LinealCongruence" data-source-line="88" data-uid="lnk47" id="link_Congruences_LinealCongruence"><path codeLine="88" d="M659.57,360.67 C627.37,360.67 617.33,360.67 617.33,360.67 C617.33,360.67 617.33,414.17 617.33,445.1" fill="none" id="Congruences-backto-LinealCongruence" style="stroke:#181818;stroke-width:1;"/><polygon fill="none" points="677.57,360.67,659.57,354.67,659.57,366.67,677.57,360.67" style="stroke:#181818;stroke-width:1;"/></g><!--reverse link Congruences to AditiveCongruence--><g class="link" data-entity-1="Congruences" data-entity-2="AditiveCongruence" data-source-line="89" data-uid="lnk48" id="link_Congruences_AditiveCongruence"><path codeLine="89" d="M768.37,403.78 C768.37,423.3 768.37,428.41 768.37,444.89" fill="none" id="Congruences-backto-AditiveCongruence" style="stroke:#181818;stroke-width:1;"/><polygon fill="none" points="768.37,385.78,762.37,403.78,774.37,403.78,768.37,385.78" style="stroke:#181818;stroke-width:1;"/></g><!--reverse link Congruences to MultipyCongruence--><g class="link" data-entity-1="Congruences" data-entity-2="MultipyCongruence" data-source-line="90" data-uid="lnk49" id="link_Congruences_MultipyCongruence"><path codeLine="90" d="M860.38,403.78 C860.38,423.3 860.38,428.41 860.38,444.89" fill="none" id="Congruences-backto-MultipyCongruence" style="stroke:#181818;stroke-width:1;"/><polygon fill="none" points="860.38,385.78,854.38,403.78,866.38,403.78,860.38,385.78" style="stroke:#181818;stroke-width:1;"/></g><!--reverse link RandomTest to MeanTest--><g class="link" data-entity-1="RandomTest" data-entity-2="MeanTest" data-source-line="91" data-uid="lnk50" id="link_RandomTest_MeanTest"><path codeLine="91" d="M1426.58,395.32 C1426.58,417.33 1426.58,425.67 1426.58,425.67 C1426.58,425.67 1657.18,425.67 1657.18,425.67 C1657.18,425.67 1657.18,435.25 1657.18,445.14" fill="none" id="RandomTest-backto-MeanTest" style="stroke:#181818;stroke-width:1;"/><polygon fill="none" points="1426.58,377.32,1420.58,395.32,1432.58,395.32,1426.58,377.32" style="stroke:#181818;stroke-width:1;"/></g><!--reverse link RandomTest to VarianceTest--><g class="link" data-entity-1="RandomTest" data-entity-2="VarianceTest" data-source-line="92" data-uid="lnk51" id="link_RandomTest_VarianceTest"><path codeLine="92" d="M1434.34,395.48 C1434.34,409.68 1434.34,405.67 1434.34,405.67 C1434.34,405.67 1760.75,405.67 1760.75,405.67 C1760.75,405.67 1760.75,427.41 1760.75,444.9" fill="none" id="RandomTest-backto-VarianceTest" style="stroke:#181818;stroke-width:1;"/><polygon fill="none" points="1434.34,377.48,1428.34,395.48,1440.34,395.48,1434.34,377.48" style="stroke:#181818;stroke-width:1;"/></g><!--reverse link RandomTest to ChiSquareTest--><g class="link" data-entity-1="RandomTest" data-entity-2="ChiSquareTest" data-source-line="93" data-uid="lnk52" id="link_RandomTest_ChiSquareTest"><path codeLine="93" d="M1329.61,373.67 C1242.33,373.67 1082.99,373.67 1082.99,373.67 C1082.99,373.67 1082.99,417.56 1082.99,444.99" fill="none" id="RandomTest-backto-ChiSquareTest" style="stroke:#181818;stroke-width:1;"/><polygon fill="none" points="1347.61,373.67,1329.61,367.67,1329.61,379.67,1347.61,373.67" style="stroke:#181818;stroke-width:1;"/></g><!--reverse link RandomTest to KolmogorovSmirnovTest--><g class="link" data-entity-1="RandomTest" data-entity-2="KolmogorovSmirnovTest" data-source-line="94" data-uid="lnk53" id="link_RandomTest_KolmogorovSmirnovTest"><path codeLine="94" d="M1354.55,395.55 C1354.55,416.54 1354.55,426.22 1354.55,445.1" fill="none" id="RandomTest-backto-KolmogorovSmirnovTest" style="stroke:#181818;stroke-width:1;"/><polygon fill="none" points="1354.55,377.55,1348.55,395.55,1360.55,395.55,1354.55,377.55" style="stroke:#181818;stroke-width:1;"/></g><!--reverse link RandomTest to PokerTest--><g class="link" data-entity-1="RandomTest" data-entity-2="PokerTest" data-source-line="95" data-uid="lnk54" id="link_RandomTest_PokerTest"><path codeLine="95" d="M1411.05,395.55 C1411.05,416.54 1411.05,426.22 1411.05,445.1" fill="none" id="RandomTest-backto-PokerTest" style="stroke:#181818;stroke-width:1;"/><polygon fill="none" points="1411.05,377.55,1405.05,395.55,1417.05,395.55,1411.05,377.55" style="stroke:#181818;stroke-width:1;"/></g><!--reverse link RandomTest to RunsTest--><g class="link" data-entity-1="RandomTest" data-entity-2="RunsTest" data-source-line="96" data-uid="lnk55" id="link_RandomTest_RunsTest"><path codeLine="96" d="M1418.81,395.63 C1418.81,421.09 1418.81,435.67 1418.81,435.67 C1418.81,435.67 1537.21,435.67 1537.21,435.67 C1537.21,435.67 1537.21,439.83 1537.21,445.09" fill="none" id="RandomTest-backto-RunsTest" style="stroke:#181818;stroke-width:1;"/><polygon fill="none" points="1418.81,377.63,1412.81,395.63,1424.81,395.63,1418.81,377.63" style="stroke:#181818;stroke-width:1;"/></g><!--SRC=[ZLHTZzCm47pthuZk1H3A7q20X0xTKK7HgQMyHfjaBxNgs3tRAQhW_ZlEHvjDl3d8GwlEJBspuzsuWzH7i50dpfyLXayh2z_KIhWhewH6VpvYOgpV6q8SeJX0XTlkdnOB3xfIACI09pUxrKtoMoJXAHGubwn1wjrgWDhdRURsvbTMohPktdXfj7lzPavNgD62DvRXF3f_WPy5gRNJyj7O-ZCvUhSY_FT0WbgaRuskR8Ewm0dy1TJZzga1Ysw2tqc5FuAL03wJ02x75-5uTDCm68CqcQ5fp9fUHrfFLL4bxv9luLv0ZKRZ3E8UsGgwa_rt0ThWVNT6QUpO7UIX71G-2jAnnHq-TIozsdsZL5QQ7CFN2PGieVNEtJ9hiQS-bTBB4xBSkb5U7iyiHwvuqkf3KEQmrEO6T6dgTWHebxPXNQyHT2ibq4-m4eAH6NoxbxsN6VxLgDfKnfhJjfPMczECVp07j3DiqsZNGHIxshw30agScSz0qRde8DVa3lsrhT3Og-H3U98DAkW7lVijXcrFquyBoqW4x3OIVhAE19_k8o78GWgs-f8lmLbPyCWUtMcZkMHMaTK9sYalYHJnf4UIUE359Bfvc4AC0NRSV514D3bTcSjWi-nanbd5TDnP2J_vh7HS0fOUzu6-ezx_ITENCXyKBsK-IEBCoKkYLyHnzSH2KZsv55BF_YkVNiL5qpENLFu2]--></g></svg>